<svg width="64" height="64" viewBox="0 0 64 64" xmlns="http://www.w3.org/2000/svg">
  <rect width="64" height="64" rx="12" ry="12" fill="#FCD34D"/>
 <g transform="scale(1.3) translate(-6,-6)">
    <path d="M43.7 40.3c-2.2-1.3-4.2-2.7-6.2-5.1-2-2.4-3.4-4.4-4.7-6.7-.4-.7-.4-1.6.1-2.2l2.5-2.5c.8-.8.8-2 0-2.8l-4.6-4.6c-.8-.8-2-.8-2.8 0l-3 3c-1.2 1.2-1.5 3-1 4.6 1 3.3 3 7.2 5.6 10.6s6.1 6.3 9.4 8.3c1.4.8 3.1.7 4.3-.5l3-3c.8-.8.8-2 0-2.8l-4.6-4.6c-.8-.8-2-.8-2.8 0l-2.5 2.5c-.6.5-1.5.5-2.2.1z"
          fill="#000000"/>
  </g>
</svg>